<?xml version="1.0" encoding="UTF-8" standalone="no"?>
<!-- Created with Inkscape (http://www.inkscape.org/) -->

<svg
   width="1279.9999"
   height="1280"
   viewBox="0 0 17.534245 17.534247"
   version="1.1"
   id="svg108521"
   xml:space="preserve"
   inkscape:version="1.2.1 (9c6d41e410, 2022-07-14)"
   sodipodi:docname="VanillaWeapons.svg"
   inkscape:export-filename="..\..\..\..\Program Files (x86)\Steam\steamapps\common\RimWorld\Mods\VanillaArsenal\Textures\Things\Item\Equipment\WeaponRanged\Chaingun.png"
   inkscape:export-xdpi="19.200001"
   inkscape:export-ydpi="19.200001"
   xmlns:inkscape="http://www.inkscape.org/namespaces/inkscape"
   xmlns:sodipodi="http://sodipodi.sourceforge.net/DTD/sodipodi-0.dtd"
   xmlns="http://www.w3.org/2000/svg"
   xmlns:svg="http://www.w3.org/2000/svg"><sodipodi:namedview
     id="namedview108523"
     pagecolor="#505050"
     bordercolor="#eeeeee"
     borderopacity="1"
     inkscape:showpageshadow="0"
     inkscape:pageopacity="0"
     inkscape:pagecheckerboard="true"
     inkscape:deskcolor="#505050"
     inkscape:document-units="mm"
     showgrid="false"
     showborder="true"
     borderlayer="false"
     showguides="false"
     inkscape:zoom="2.1770318"
     inkscape:cx="12155.312"
     inkscape:cy="3626.9567"
     inkscape:window-width="1920"
     inkscape:window-height="1051"
     inkscape:window-x="-9"
     inkscape:window-y="-9"
     inkscape:window-maximized="1"
     inkscape:current-layer="layer1"><sodipodi:guide
       position="-5.5529784e-07,36.613095"
       orientation="0,-1"
       id="guide114312"
       inkscape:locked="false" /><sodipodi:guide
       position="3.2565658,19.078848"
       orientation="0,-1"
       id="guide114314"
       inkscape:locked="false" /><sodipodi:guide
       position="-5.5529784e-07,19.078848"
       orientation="1,0"
       id="guide136758"
       inkscape:locked="false" /><sodipodi:guide
       position="17.534246,36.613095"
       orientation="1,0"
       id="guide177855"
       inkscape:locked="false" /><sodipodi:guide
       position="4.2420172,24.777802"
       orientation="0,-1"
       id="guide69704"
       inkscape:locked="false" /><sodipodi:guide
       position="8.2052145,25.613535"
       orientation="0,-1"
       id="guide69706"
       inkscape:locked="false" /><sodipodi:guide
       position="-4.9646661,26.147635"
       orientation="0,-1"
       id="guide69708"
       inkscape:locked="false" /><sodipodi:guide
       position="8.1282928,26.693437"
       orientation="0,-1"
       id="guide78849"
       inkscape:locked="false" /><sodipodi:guide
       position="8.3503067,23.915984"
       orientation="0,-1"
       id="guide78851"
       inkscape:locked="false" /><sodipodi:guide
       position="3.1776325,26.570515"
       orientation="0,-1"
       id="guide81527"
       inkscape:locked="false" /><sodipodi:guide
       position="5.1547159,21.353774"
       orientation="0.5,-0.8660254"
       id="guide81529"
       inkscape:locked="false" /><sodipodi:guide
       position="9.4007596,23.241866"
       orientation="0.5,-0.8660254"
       id="guide82387"
       inkscape:locked="false" /><sodipodi:guide
       position="9.3970455,23.915985"
       orientation="1,0"
       id="guide82389"
       inkscape:locked="false" /><sodipodi:guide
       position="9.3970046,26.693437"
       orientation="0,-1"
       id="guide83141"
       inkscape:locked="false" /><sodipodi:guide
       position="9.0630926,20.884865"
       orientation="0,-1"
       id="guide1786"
       inkscape:locked="false" /><sodipodi:guide
       position="4.9209913,23.247465"
       orientation="1,0"
       id="guide1788"
       inkscape:locked="false" /><sodipodi:guide
       position="24.477213,43.333316"
       orientation="0,-1"
       id="guide160368"
       inkscape:locked="false" /><sodipodi:guide
       position="19.238477,43.333316"
       orientation="0,-1"
       id="guide163220"
       inkscape:locked="false" /><sodipodi:guide
       position="27.517477,43.333316"
       orientation="1,0"
       id="guide165977"
       inkscape:locked="false" /><sodipodi:guide
       position="27.373715,42.441748"
       orientation="0,-1"
       id="guide169977"
       inkscape:locked="false" /><sodipodi:guide
       position="-3.7628214,28.425627"
       orientation="1,0"
       id="guide181141"
       inkscape:locked="false" /><sodipodi:guide
       position="-4.2961661,28.425627"
       orientation="1,0"
       id="guide181143"
       inkscape:locked="false" /><sodipodi:guide
       position="-5.2352318,27.258535"
       orientation="1,0"
       id="guide184845"
       inkscape:locked="false" /><sodipodi:guide
       position="36.767116,27.845971"
       orientation="0,-1"
       id="guide185373"
       inkscape:locked="false" /><sodipodi:guide
       position="37.804395,41.495952"
       orientation="0,-1"
       id="guide189444"
       inkscape:locked="false" /><sodipodi:guide
       position="-11.083458,28.588013"
       orientation="0,-1"
       id="guide191987"
       inkscape:locked="false" /><sodipodi:guide
       position="-10.149549,9.7510928"
       orientation="1,0"
       id="guide191993"
       inkscape:locked="false" /><sodipodi:guide
       position="-13.242091,28.588013"
       orientation="1,0"
       id="guide191995"
       inkscape:locked="false" /><sodipodi:guide
       position="-11.5461,29.609902"
       orientation="1,0"
       id="guide192348"
       inkscape:locked="false" /><sodipodi:guide
       position="-9.4246583,25.997807"
       orientation="0,-1"
       id="guide193448"
       inkscape:locked="false" /><sodipodi:guide
       position="8.7671229,8.7671238"
       orientation="0,-1"
       id="guide1068"
       inkscape:locked="false" /><sodipodi:guide
       position="-49.263296,30.633157"
       orientation="0,-1"
       id="guide1160"
       inkscape:locked="false" /><sodipodi:guide
       position="164.77129,-15.059625"
       orientation="1,0"
       id="guide3445"
       inkscape:locked="false" /><sodipodi:guide
       position="165.7475,-13.545795"
       orientation="0,-1"
       id="guide11221"
       inkscape:locked="false" /><sodipodi:guide
       position="164.73595,-13.545795"
       orientation="0,-1"
       id="guide11223"
       inkscape:locked="false" /><sodipodi:guide
       position="164.80513,-13.552087"
       orientation="0,-1"
       id="guide14865"
       inkscape:locked="false" /><sodipodi:guide
       position="168.0496,-12.158855"
       orientation="1,0"
       id="guide22201"
       inkscape:locked="false" /><sodipodi:guide
       position="165.32208,-14.609113"
       orientation="0,-1"
       id="guide42096"
       inkscape:locked="false" /><sodipodi:guide
       position="16.311347,8.1905948"
       orientation="0,-1"
       id="guide49408"
       inkscape:locked="false" /><sodipodi:guide
       position="15.139376,7.7609828"
       orientation="1,0"
       id="guide53278"
       inkscape:locked="false" /><sodipodi:guide
       position="16.311347,8.1905948"
       orientation="1,0"
       id="guide59209"
       inkscape:locked="false" /><sodipodi:guide
       position="15.625922,7.1499618"
       orientation="0,-1"
       id="guide59211"
       inkscape:locked="false" /><sodipodi:guide
       position="16.638541,9.2392778"
       orientation="0.8660185,0.50001195"
       id="guide61091"
       inkscape:locked="false" /><sodipodi:guide
       position="10.357195,7.4225058"
       orientation="0,-1"
       id="guide62143"
       inkscape:locked="false" /><sodipodi:guide
       position="13.06559,8.7961278"
       orientation="0,-1"
       id="guide63803"
       inkscape:locked="false" /><sodipodi:guide
       position="12.988135,9.6008078"
       orientation="0.70710678,0.70710678"
       id="guide63809"
       inkscape:locked="false" /><sodipodi:guide
       position="6.6069666,8.0206818"
       orientation="1,0"
       id="guide66083"
       inkscape:locked="false" /></sodipodi:namedview><defs
     id="defs108518"><inkscape:path-effect
       effect="bspline"
       id="path-effect65718"
       is_visible="true"
       lpeversion="1"
       weight="33.333333"
       steps="2"
       helper_size="0"
       apply_no_weight="true"
       apply_with_weight="true"
       only_selected="false" /><inkscape:path-effect
       effect="bspline"
       id="path-effect65265"
       is_visible="true"
       lpeversion="1"
       weight="33.333333"
       steps="2"
       helper_size="0"
       apply_no_weight="true"
       apply_with_weight="true"
       only_selected="false" /><inkscape:path-effect
       effect="bspline"
       id="path-effect63807"
       is_visible="true"
       lpeversion="1"
       weight="33.333333"
       steps="2"
       helper_size="0"
       apply_no_weight="true"
       apply_with_weight="true"
       only_selected="false" /><inkscape:path-effect
       effect="bspline"
       id="path-effect63798"
       is_visible="true"
       lpeversion="1"
       weight="33.333333"
       steps="2"
       helper_size="0"
       apply_no_weight="true"
       apply_with_weight="true"
       only_selected="false" /><inkscape:path-effect
       effect="bspline"
       id="path-effect62147"
       is_visible="true"
       lpeversion="1"
       weight="33.333333"
       steps="2"
       helper_size="0"
       apply_no_weight="true"
       apply_with_weight="true"
       only_selected="false" /><inkscape:path-effect
       effect="bspline"
       id="path-effect62141"
       is_visible="true"
       lpeversion="1"
       weight="33.333333"
       steps="2"
       helper_size="0"
       apply_no_weight="true"
       apply_with_weight="true"
       only_selected="false" /><inkscape:path-effect
       effect="bspline"
       id="path-effect59267"
       is_visible="true"
       lpeversion="1"
       weight="33.333333"
       steps="2"
       helper_size="0"
       apply_no_weight="true"
       apply_with_weight="true"
       only_selected="false" /><inkscape:path-effect
       effect="bspline"
       id="path-effect59263"
       is_visible="true"
       lpeversion="1"
       weight="33.333333"
       steps="2"
       helper_size="0"
       apply_no_weight="true"
       apply_with_weight="true"
       only_selected="false" /><inkscape:path-effect
       effect="bspline"
       id="path-effect53562"
       is_visible="true"
       lpeversion="1"
       weight="33.333333"
       steps="2"
       helper_size="0"
       apply_no_weight="true"
       apply_with_weight="true"
       only_selected="false" /><inkscape:path-effect
       effect="bspline"
       id="path-effect53351"
       is_visible="true"
       lpeversion="1"
       weight="33.333333"
       steps="2"
       helper_size="0"
       apply_no_weight="true"
       apply_with_weight="true"
       only_selected="false" /><inkscape:path-effect
       effect="bspline"
       id="path-effect53282"
       is_visible="true"
       lpeversion="1"
       weight="33.333333"
       steps="2"
       helper_size="0"
       apply_no_weight="true"
       apply_with_weight="true"
       only_selected="false" /><inkscape:path-effect
       effect="bspline"
       id="path-effect49406"
       is_visible="true"
       lpeversion="1"
       weight="33.333333"
       steps="2"
       helper_size="0"
       apply_no_weight="true"
       apply_with_weight="true"
       only_selected="false" /><inkscape:path-effect
       effect="bspline"
       id="path-effect169076-5-8"
       is_visible="true"
       lpeversion="1"
       weight="33.333333"
       steps="2"
       helper_size="0"
       apply_no_weight="true"
       apply_with_weight="true"
       only_selected="false" /></defs><g
     inkscape:label="Layer 1"
     inkscape:groupmode="layer"
     id="layer1"
     style="display:inline"
     transform="translate(-5.5529785e-7,-19.078848)"><path
       id="path66087"
       style="opacity:1;fill:#222222;fill-opacity:1;stroke:#000000;stroke-width:0.621292;stroke-linecap:round;stroke-linejoin:round;stroke-dasharray:none;stroke-opacity:1;paint-order:markers stroke fill"
       d="m 14.940952,26.228971 -0.418237,0.498181 H 7.5988069 l -0.2543878,-0.38696 h -0.882331 l 0.012735,0.38696 c -0.039551,0.03955 -0.079129,0.07908 -0.1211473,0.117 h -2.446142 l -0.5135648,0.2965 H 1.5164544 0.77391911 c -0.16382042,0 -0.29569778,0.131878 -0.29569778,0.295698 v 2.194323 c 0,0.16382 0.13187736,0.295698 0.29569778,0.295698 0.00128,0 0.00255,1.6e-5 0.003826,0 H 1.5164544 2.5272368 L 2.792835,29.46637 c 0.5314196,0.114832 1.0635516,0.229666 1.7371576,0.343509 0.6769728,0.114411 1.4967893,0.227819 2.3166471,0.341235 h 0.010247 l -0.010247,0.01554 c 0.085271,0.109604 0.1705529,0.219217 0.1796608,0.339764 0.00911,0.120547 -0.057917,0.252025 -0.1457353,0.420163 -0.087819,0.168137 -0.1964207,0.372905 -0.2901327,0.565844 -0.093712,0.19294 -0.1725203,0.373999 -0.2255725,0.520628 -0.053052,0.14663 -0.080316,0.258744 -0.1075825,0.37088 0.1625773,0.102842 0.3251528,0.205705 0.546768,0.254736 0.2216153,0.04903 0.5022024,0.04424 0.7828286,0.03946 l 1.1802494,0.224877 0.1182577,-0.133481 c 0.00742,-0.161659 0.014811,-0.323303 0.100091,-0.600653 0.08528,-0.27735 0.2484262,-0.670371 0.4086044,-1.023357 C 9.5542548,30.792529 9.7114761,30.47959 9.868686,30.166651 H 8.388137 l -0.01105,-0.01554 h 1.491599 l 0.13613,-0.234322 v 0.01552 h 4.73186 V 29.734 l 0.524615,-0.274615 v -0.263457 l 0.788795,-0.184424 0.06566,-0.587489 0.195607,-0.0015 v -5.4e-5 -0.104372 h 0.809129 V 27.373823 H 16.569323 L 16.31135,27.069885 h -0.272314 l -0.197881,-0.342733 v -0.498181 z" /><path
       style="opacity:1;fill:#222222;fill-opacity:1;stroke:none;stroke-width:0.621292;stroke-linecap:round;stroke-linejoin:round;stroke-dasharray:none;paint-order:markers stroke fill"
       d="m 16.129209,28.30367 c 0,0 -0.07912,0.707826 -0.07912,0.707826 0,0 -1.426683,0.333603 -1.426683,0.333603 0,0 -0.145758,-0.749435 -0.145758,-0.749435 0,0 0.901664,-0.520576 0.901664,-0.520576 0,0 0.512386,0.137293 0.512386,0.137293 0,0 0.237512,0.09129 0.237512,0.09129 0,0 -1e-6,-1e-6 -1e-6,-1e-6 z"
       id="path53560"
       inkscape:path-effect="#path-effect53562"
       inkscape:original-d="m 16.129209,28.30367 -0.07912,0.707826 -1.426683,0.333603 -0.145758,-0.749435 0.901664,-0.520576 0.512386,0.137293 0.237512,0.09129 z"
       sodipodi:nodetypes="cccccccc" /><path
       style="opacity:1;fill:#222222;fill-opacity:1;stroke:none;stroke-width:0.621292;stroke-linecap:round;stroke-linejoin:round;stroke-dasharray:none;paint-order:markers stroke fill"
       d="m 15.785548,27.069896 c 0,0 0.02525,0 0.02525,0 0,0 0.500551,0 0.500551,0 0,0 0.257977,0.303921 0.257977,0.303921 0,0 -0.509363,0.164713 -0.509363,0.164713 0,0 -0.274411,-0.468634 -0.274411,-0.468634 0,0 -4e-6,0 -4e-6,0 z"
       id="path65263"
       inkscape:path-effect="#path-effect65265"
       inkscape:original-d="m 15.785548,27.069896 h 0.02525 0.500551 l 0.257977,0.303921 -0.509363,0.164713 -0.274411,-0.468634 z"
       sodipodi:nodetypes="ccccccc" /><rect
       style="display:inline;fill:#222222;fill-opacity:1;stroke:none;stroke-width:0.728276;stroke-linecap:round;stroke-linejoin:round;stroke-dasharray:none;stroke-opacity:1;paint-order:markers stroke fill"
       id="rect164687-9-7"
       width="1.3349214"
       height="0.94430631"
       x="15.785548"
       y="27.373817" /><path
       id="rect165528-5-6"
       style="display:inline;fill:#464646;fill-opacity:1;stroke:none;stroke-width:0.463127;stroke-linecap:round;stroke-linejoin:round;stroke-dasharray:none;stroke-opacity:1;paint-order:markers stroke fill"
       d="m 16.569326,27.373817 v 0.353922 l 0.551144,5e-6 v -0.353923 z"
       sodipodi:nodetypes="ccccc" /><path
       style="opacity:1;fill:#222222;fill-opacity:1;stroke:none;stroke-width:0.621292;stroke-linecap:round;stroke-linejoin:round;stroke-dasharray:none;paint-order:markers stroke fill"
       d="m 6.3537273,26.844146 c 0,0 -2.4461824,0 -2.4461824,0 0,0 -0.7066821,0.408003 -0.7066821,0.408003 0,0 2.2664063,0.607282 2.2664063,0.607282 0,0 0.7539381,-0.753938 0.7539381,-0.753938 0,0 0.1325201,-0.261347 0.1325201,-0.261347 z"
       id="path62139"
       inkscape:path-effect="#path-effect62141"
       inkscape:original-d="m 6.3537273,26.844146 c 0,0 -2.4461824,0 -2.4461824,0 0,0 -0.7066821,0.408003 -0.7066821,0.408003 0,0 2.2664063,0.607282 2.2664063,0.607282 0,0 0.7539381,-0.753938 0.7539381,-0.753938 0,0 0.1325201,-0.261347 0.1325201,-0.261347 z" /><path
       style="opacity:1;fill:#656565;fill-opacity:1;stroke:none;stroke-width:0.621292;stroke-linecap:round;stroke-linejoin:round;stroke-dasharray:none;paint-order:markers stroke fill"
       d="m 16.311348,28.4225 c 0,0 0,-0.880973 0,-0.880973 0,0 -0.470184,-0.814381 -0.470184,-0.814381 0,0 -9.3663432,0 -9.3663432,0 -0.1378371,0.137837 -0.2756743,0.275674 -0.5179261,0.344593 -0.2422517,0.06892 -0.5889319,0.06892 -0.9356052,0.06892 0,0 -4.03353198,0 -4.03353198,0 0,0 0,2.785726 0,2.785726 0,0 1.53947798,0 1.53947798,0 0,0 0.6202306,-1.074271 0.6202306,-1.074271 0,0 12.1138349,-0.11595 12.1138349,-0.11595 0.0172,-0.04604 0.03439,-0.09208 0.06956,-0.137523 0.03516,-0.04545 0.09892,-0.09927 0.143624,-0.122004 0.0447,-0.02273 0.115026,-0.03712 0.17364,-0.0491 0,0 0.663221,-0.005 0.663221,-0.005 0,0 5e-6,-3.3e-5 5e-6,-3.3e-5 z"
       id="path49404"
       inkscape:path-effect="#path-effect49406"
       inkscape:original-d="M 16.311348,28.4225 V 27.541527 L 15.841164,26.727146 H 6.4748208 c 0,0 -0.2756605,0.275688 -0.4135113,0.413511 -0.3466665,1.4e-5 -1.04002,0 -1.04002,0 H 0.98775752 v 2.785726 H 2.5272355 l 0.6202306,-1.074271 12.1138349,-0.11595 c 0,0 0.03441,-0.09207 0.05159,-0.138119 0.05314,-0.04484 0.116902,-0.09866 0.15939,-0.13455 0.0469,-0.0096 0.175841,-0.03596 0.175841,-0.03596 l 0.663221,-0.005 z"
       sodipodi:nodetypes="ccccccccccczsccc" /><path
       id="rect164282-7-1"
       style="display:inline;fill:#8f8f8f;fill-opacity:1;stroke:none;stroke-width:0.467287;stroke-linecap:round;stroke-linejoin:round;stroke-dasharray:none;stroke-opacity:1;paint-order:markers stroke fill"
       d="m 15.920832,26.859964 -8.654427,2.7e-5 c -0.079145,0.09887 -0.2033753,0.186868 -0.3996147,0.267337 -0.00664,0.0027 -0.013346,0.0054 -0.020147,0.0081 h 9.2332477 z"
       sodipodi:nodetypes="ccsccc" /><rect
       style="opacity:1;fill:#222222;fill-opacity:1;stroke:none;stroke-width:0.650722;stroke-linecap:round;stroke-linejoin:round;stroke-dasharray:none;paint-order:markers stroke fill"
       id="rect52198"
       width="4.7318416"
       height="1.3115071"
       x="10.004825"
       y="28.422501" /><rect
       style="opacity:1;fill:#141414;fill-opacity:1;stroke:none;stroke-width:0.31477;stroke-linecap:round;stroke-linejoin:round;stroke-dasharray:none;paint-order:markers stroke fill"
       id="rect53222"
       width="4.7318416"
       height="0.30687541"
       x="10.004825"
       y="29.625437" /><path
       style="opacity:1;fill:#141414;fill-opacity:1;stroke:none;stroke-width:0.809394;stroke-linecap:round;stroke-linejoin:round;stroke-dasharray:none;paint-order:markers stroke fill"
       d="m 14.736666,29.734008 c 0,0 0.524635,-0.274615 0.524635,-0.274615 0,0 0,-0.723231 0,-0.723231 0,0 -0.524635,0 -0.524635,0 0,0 0,0.997846 0,0.997846 z"
       id="path53280"
       inkscape:path-effect="#path-effect53282"
       inkscape:original-d="m 14.736666,29.734008 c 0,0 0.524635,-0.274615 0.524635,-0.274615 0,0 0,-0.723231 0,-0.723231 0,0 -0.524635,0 -0.524635,0 0,0 0,0.997846 0,0.997846 z" /><path
       style="opacity:1;fill:#222222;fill-opacity:1;stroke:none;stroke-width:0.621292;stroke-linecap:round;stroke-linejoin:round;stroke-dasharray:none;paint-order:markers stroke fill"
       d="m 10.004824,28.406969 c 0,0 0,-0.528544 0,-0.528544 0,0 -3.3978641,0 -3.3978641,0 0,0 -0.4398209,0.306075 -0.4398209,0.306075 0,0 -0.8903937,0.631702 -0.8903937,0.631702 0,0 -2.1292793,0.02038 -2.1292793,0.02038 0,0 -0.3626163,0.62807 -0.3626163,0.62807 0.5340725,0.115407 1.0681611,0.230817 1.7451345,0.345229 0.6769735,0.114412 1.4968003,0.227823 2.3166589,0.341239 0,0 3.0220335,0 3.0220335,0 0,0 0.1361484,-0.234337 0.1361484,-0.234337 0,0 -1e-6,-1.509814 -1e-6,-1.509814 z"
       id="path53349"
       inkscape:path-effect="#path-effect53351"
       inkscape:original-d="M 10.004824,28.406969 V 27.878425 H 6.6069599 L 6.167139,28.1845 5.2767453,28.816202 3.147466,28.836582 2.7848497,29.464652 c 0,0 1.0681588,0.230828 1.6022175,0.346221 0.8198888,0.113432 2.4595759,0.340247 2.4595759,0.340247 h 3.0220335 l 0.1361484,-0.234337 z"
       sodipodi:nodetypes="cccccccccccc" /><rect
       style="opacity:1;fill:#946929;fill-opacity:1;stroke:none;stroke-width:0.28964;stroke-linecap:round;stroke-linejoin:round;stroke-dasharray:none;paint-order:markers stroke fill"
       id="rect55586"
       width="4.0270991"
       height="0.30530208"
       x="10.357196"
       y="29.62701" /><rect
       style="opacity:1;fill:#a58239;fill-opacity:1;stroke:none;stroke-width:0.364369;stroke-linecap:round;stroke-linejoin:round;stroke-dasharray:none;paint-order:markers stroke fill"
       id="rect55588"
       width="4.0270991"
       height="0.48316684"
       x="10.357196"
       y="29.142271" /><rect
       style="opacity:1;fill:#a58239;fill-opacity:1;stroke:none;stroke-width:0.402166;stroke-linecap:round;stroke-linejoin:round;stroke-dasharray:none;paint-order:markers stroke fill"
       id="rect55590"
       width="4.0270991"
       height="0.58860564"
       x="10.357196"
       y="28.422501" /><rect
       style="opacity:1;fill:#141414;fill-opacity:1;stroke:none;stroke-width:0.289276;stroke-linecap:round;stroke-linejoin:round;stroke-dasharray:none;paint-order:markers stroke fill"
       id="rect52425"
       width="4.7318416"
       height="0.25918093"
       x="10.004825"
       y="28.931408" /><rect
       style="opacity:1;fill:#946929;fill-opacity:1;stroke:none;stroke-width:0.266866;stroke-linecap:round;stroke-linejoin:round;stroke-dasharray:none;paint-order:markers stroke fill"
       id="rect55085"
       width="4.0270991"
       height="0.25918111"
       x="10.357196"
       y="28.931408" /><rect
       style="opacity:1;fill:#141414;fill-opacity:1;stroke:none;stroke-width:0.219141;stroke-linecap:round;stroke-linejoin:round;stroke-dasharray:none;paint-order:markers stroke fill"
       id="rect56083"
       width="4.7318416"
       height="0.1487395"
       x="10.004825"
       y="28.422501" /><rect
       style="opacity:1;fill:#946929;fill-opacity:1;stroke:none;stroke-width:0.202164;stroke-linecap:round;stroke-linejoin:round;stroke-dasharray:none;paint-order:markers stroke fill"
       id="rect56085"
       width="4.0270991"
       height="0.14873962"
       x="10.357196"
       y="28.422501" /><path
       id="path65800"
       style="opacity:1;fill:#141414;fill-opacity:1;stroke-width:0.586661;stroke-linecap:round;stroke-linejoin:round;paint-order:markers stroke fill"
       d="m 4.4277077,28.048106 c -0.1432428,0 -0.2585616,-0.115319 -0.2585616,-0.258562 0,-0.01434 0.00117,-0.02842 0.0034,-0.04211 h 1.8748395 c 0.00222,0.0137 0.0034,0.02777 0.0034,0.04211 0,0.143243 -0.1153189,0.258562 -0.2585617,0.258562 z" /><rect
       style="opacity:1;fill:#222222;fill-opacity:1;stroke:none;stroke-width:0.50611;stroke-linecap:round;stroke-linejoin:round;stroke-dasharray:none;paint-order:markers stroke fill"
       id="rect59213"
       width="5.6192021"
       height="0.30607608"
       x="0.9877575"
       y="27.893955" /><path
       style="opacity:1;fill:#141414;fill-opacity:1;stroke:none;stroke-width:0.621292;stroke-linecap:round;stroke-linejoin:round;stroke-dasharray:none;paint-order:markers stroke fill"
       d="m 7.5868839,32.678139 c 0,0 1.1802393,0.224865 1.1802393,0.224865 0,0 0.1182452,-0.133481 0.1182452,-0.133481 0.00742,-0.16166 0.014831,-0.323307 0.1001109,-0.600657 0.08528,-0.27735 0.2484205,-0.670369 0.4085989,-1.023355 0.1601784,-0.352986 0.3173882,-0.665924 0.4745983,-0.978863 0,0 -1.4805381,0 -1.4805381,0 0,0 -0.7502745,1.3971 -0.7502745,1.3971 0,0 -0.05098,1.114391 -0.05098,1.114391 z"
       id="path59261"
       inkscape:path-effect="#path-effect59263"
       inkscape:original-d="m 7.5868839,32.678139 c 0,0 1.1802393,0.224865 1.1802393,0.224865 0,0 0.1182452,-0.133481 0.1182452,-0.133481 0,0 0.014845,-0.323306 0.022247,-0.484979 0.1631606,-0.393021 0.3263008,-0.78604 0.4894307,-1.17908 0.157227,-0.312931 0.4716304,-0.938816 0.4716304,-0.938816 0,0 -1.4805381,0 -1.4805381,0 0,0 -0.7502745,1.3971 -0.7502745,1.3971 0,0 -0.05098,1.114391 -0.05098,1.114391 z" /><path
       style="display:inline;opacity:1;fill:#141414;fill-opacity:1;stroke:none;stroke-width:0.411285;stroke-linecap:round;stroke-linejoin:round;stroke-dasharray:none;stroke-opacity:1;paint-order:markers stroke fill"
       d="m 6.8466431,30.166649 c 0.085272,0.109603 0.1705508,0.219217 0.1796586,0.339764 0.00911,0.120547 -0.05793,0.252029 -0.1457492,0.420166 -0.087819,0.168137 -0.1964058,0.372907 -0.2901179,0.565847 -0.093712,0.19294 -0.1725297,0.374007 -0.2255821,0.520636 -0.053052,0.14663 -0.080313,0.258744 -0.1075797,0.37088 0.1625774,0.102842 0.3251603,0.205688 0.5467757,0.254719 0.2216155,0.04903 0.5022096,0.04425 0.7828361,0.03948 0,0 0.1396834,-0.186105 0.1396834,-0.186105 -0.00439,-0.106391 -0.00878,-0.212756 -0.00133,-0.33209 0.00745,-0.119334 0.026724,-0.251564 0.068908,-0.391946 0.042184,-0.140381 0.1072704,-0.28888 0.1902083,-0.467798 0.082938,-0.178917 0.183721,-0.388238 0.2539921,-0.58223 0.070271,-0.193992 0.1100287,-0.372661 0.149784,-0.551321 0,0 -0.243365,-0.342033 -0.243365,-0.342033 0,0 -0.8421289,-0.08175 -0.8421289,-0.08175 0,0 -0.2607765,0.127852 -0.2607765,0.127852 0,0 -0.1952165,0.295931 -0.1952165,0.295931 z"
       id="path169074-5-4"
       inkscape:path-effect="#path-effect169076-5-8"
       inkscape:original-d="m 6.8466431,30.166649 c 0,0 0.1705529,0.219215 0.2558145,0.32881 -0.067032,0.131509 -0.1340698,0.262991 -0.2011275,0.39447 -0.1085802,0.204796 -0.2171668,0.409566 -0.3257747,0.614335 -0.078816,0.181109 -0.1576339,0.362176 -0.2364836,0.543271 -0.027256,0.112161 -0.081799,0.336407 -0.081799,0.336407 0,0 0.3251578,0.205692 0.4877322,0.308527 0.2806586,-0.0048 0.8418796,-0.01433 0.8418796,-0.01433 L 7.726568,32.492034 c 0,0 -0.00876,-0.212757 -0.013166,-0.319174 C 7.732698,32.040612 7.751976,31.908382 7.771244,31.776116 7.836347,31.627624 7.9014324,31.479125 7.9665041,31.330614 8.0673081,31.121291 8.1680912,30.91197 8.2688642,30.702628 8.3086332,30.523982 8.38813,30.166649 8.38813,30.166649 L 8.144765,29.824616 7.3026361,29.742866 7.0418596,29.870718 Z"
       sodipodi:nodetypes="ccccccccccccsccccc" /><path
       style="opacity:1;fill:#000000;fill-opacity:1;stroke:none;stroke-width:0.621292;stroke-linecap:round;stroke-linejoin:round;stroke-dasharray:none;paint-order:markers stroke fill"
       d="m 7.7265677,32.492033 c 0.1756639,0.02724 0.3513427,0.05448 0.4577114,0.06439 0.1063687,0.0099 0.1434473,0.0025 0.2767819,-0.237483 0.1333346,-0.239975 0.3634966,-0.713663 0.5355397,-1.075546 0.1720431,-0.361884 0.2862445,-0.612533 0.4004451,-0.86318 0,0 -0.2002223,-0.21357 -0.2002223,-0.21357 -0.20304,0 -0.4060663,0 -0.5554584,0.05976 -0.149392,0.05976 -0.2451178,0.179288 -0.3401131,0.353269 -0.094995,0.173981 -0.1892522,0.402401 -0.2736486,0.609531 -0.084396,0.20713 -0.1589279,0.392959 -0.2076786,0.551202 -0.048751,0.158243 -0.07172,0.28889 -0.082982,0.409565 -0.011262,0.120674 -0.010819,0.231356 -0.010375,0.342053 0,0 0,2e-6 0,2e-6 z"
       id="path59265"
       inkscape:path-effect="#path-effect59267"
       inkscape:original-d="m 7.7265677,32.492033 c 0,0 0.3513415,0.05449 0.5269918,0.08172 0.037092,-0.0074 0.07417,-0.01482 0.111234,-0.02225 0.2284186,-0.473111 0.4597807,-0.946216 0.6896505,-1.419345 0.1142166,-0.250638 0.3426018,-0.751942 0.3426018,-0.751942 0,0 -0.2002223,-0.21357 -0.2002223,-0.21357 0,0 -0.4060663,1.3e-5 -0.60912,0 -0.095716,0.119541 -0.1914415,0.239065 -0.2871829,0.358578 -0.094247,0.228444 -0.1885044,0.456864 -0.2827771,0.685276 -0.07452,0.185848 -0.1490515,0.371677 -0.2235978,0.557495 -0.022956,0.130664 -0.045925,0.261311 -0.068908,0.391945 4.576e-4,0.110712 0.00133,0.332091 0.00133,0.332091 z" /><path
       id="rect60881"
       style="opacity:1;fill:#656565;fill-opacity:1;stroke-width:0.621292;stroke-linecap:round;stroke-linejoin:round;paint-order:markers stroke fill"
       d="m 14.940945,26.228968 h 0.900218 v 0.498178 l -0.659229,0.13282 -0.659229,-0.13282 z"
       sodipodi:nodetypes="cccccc" /><rect
       style="opacity:1;fill:#222222;fill-opacity:1;stroke:none;stroke-width:0.736291;stroke-linecap:round;stroke-linejoin:round;stroke-dasharray:none;paint-order:markers stroke fill"
       id="rect61093"
       width="0.74253166"
       height="2.7857258"
       x="0.77392304"
       y="27.140657" /><rect
       style="opacity:1;fill:#222222;fill-opacity:1;stroke:none;stroke-width:0.621292;stroke-linecap:round;stroke-linejoin:round;stroke-dasharray:none;paint-order:markers stroke fill"
       id="rect61147"
       width="0.59141004"
       height="2.7857258"
       x="0.47821802"
       y="27.140657"
       rx="0.29570502"
       ry="0.29570502" /><rect
       style="opacity:1;fill:#141414;fill-opacity:1;stroke:none;stroke-width:0.424623;stroke-linecap:round;stroke-linejoin:round;stroke-dasharray:none;paint-order:markers stroke fill"
       id="rect61149"
       width="0.74253166"
       height="0.92649955"
       x="0.77392304"
       y="28.999884" /><path
       id="rect61341"
       style="opacity:1;fill:#656565;stroke-width:0.639203;stroke-linecap:round;stroke-linejoin:round;paint-order:markers stroke fill"
       transform="matrix(-1,0,0.32781428,0.94474219,0,0)"
       d="M 1.7953163,27.880836 H 2.677652 L 2.7991807,28.290413 2.2865861,28.44112 1.6751836,28.290412 Z"
       sodipodi:nodetypes="cccccc" /><path
       style="opacity:1;fill:#141414;fill-opacity:1;stroke:none;stroke-width:0.621292;stroke-linecap:round;stroke-linejoin:round;stroke-dasharray:none;paint-order:markers stroke fill"
       d="m 10.004825,29.932313 c 0,0 -0.9430825,-0.252698 -0.9430825,-0.252698 0,0 -2.9483243,0 -2.9483243,0 C 5.9680725,29.607454 5.8227431,29.535302 5.750062,29.499217 5.677381,29.463133 5.3748247,29.14227 5.3584806,29.090521 c -0.016344,-0.05175 -0.049042,-0.155276 -0.081735,-0.258788 0,0 0.8903936,-0.631703 0.8903936,-0.631703 0,0 1.7260228,0 1.7260228,0 0,0 1.0411497,0.990559 1.0411497,0.990559 0,0 1.0705132,1e-6 1.0705132,1e-6 0,0 0,0.741726 0,0.741726 0,0 0,-3e-6 0,-3e-6 z"
       id="path62145"
       inkscape:path-effect="#path-effect62147"
       inkscape:original-d="M 10.004825,29.932313 9.0617425,29.679615 H 6.1134182 c 0,0 -0.2906777,-0.144308 -0.4360372,-0.216482 L 5.3748247,29.14227 c -0.03268,-0.1035 -0.098079,-0.310537 -0.098079,-0.310537 L 6.1671393,28.20003 h 1.7260228 l 1.0411497,0.990559 1.0705132,1e-6 v 0.741726 z"
       sodipodi:nodetypes="cccccccccccc" /><path
       id="rect62944"
       style="opacity:1;fill:#222222;fill-opacity:1;stroke-width:0.586661;stroke-linecap:round;stroke-linejoin:round;paint-order:markers stroke fill"
       d="m 4.4277077,27.530983 c -0.1432428,0 -0.2585616,0.115319 -0.2585616,0.258562 0,0.01434 0.00117,0.02842 0.0034,0.04211 h 1.8748395 c 0.00222,-0.0137 0.0034,-0.02777 0.0034,-0.04211 0,-0.143243 -0.1153189,-0.258562 -0.2585617,-0.258562 z" /><path
       style="opacity:1;fill:#656565;fill-opacity:1;stroke:none;stroke-width:0.621292;stroke-linecap:round;stroke-linejoin:round;stroke-dasharray:none;paint-order:markers stroke fill"
       d="m 10.004824,28.4225 c 0,0 -0.7933186,-0.793319 -0.7933186,-0.793319 0,0 1.1732966,0 1.1732966,0 0,0 -0.379978,0.793319 -0.379978,0.793319 z"
       id="path63796"
       inkscape:path-effect="#path-effect63798"
       inkscape:original-d="m 10.004824,28.4225 c 0,0 -0.7933186,-0.793319 -0.7933186,-0.793319 0,0 1.1732966,0 1.1732966,0 0,0 -0.379978,0.793319 -0.379978,0.793319 z" /><path
       id="rect63800"
       style="opacity:1;fill:#8f8f8f;stroke-width:0.473863;stroke-linecap:round;stroke-linejoin:round;paint-order:markers stroke fill"
       d="m 12.843123,27.541527 h 3.468225 v 0.27544 h -3.245757 z"
       sodipodi:nodetypes="ccccc" /><path
       style="opacity:1;fill:#8f8f8f;fill-opacity:1;stroke:none;stroke-width:0.621292;stroke-linecap:round;stroke-linejoin:round;stroke-dasharray:none;paint-order:markers stroke fill"
       d="m 13.792816,27.816972 c 0,0 -0.80468,-0.804685 -0.80468,-0.804685 0,0 -2.512614,-0.0051 -2.512614,-0.0051 0,0 0.809743,0.809743 0.809743,0.809743 0.83585,0 1.671715,0 2.089633,2e-6 0.417918,3e-6 0.417918,10e-7 0.417918,3e-6 0,0 0,3.7e-5 0,3.7e-5 z"
       id="path63805"
       inkscape:path-effect="#path-effect63807"
       inkscape:original-d="m 13.792816,27.816972 -0.80468,-0.804685 -2.512614,-0.0051 0.809743,0.809743 c 0,0 1.671715,1.4e-5 2.507551,0 1.4e-5,1.5e-5 0,5e-6 0,5e-6 z"
       sodipodi:nodetypes="ccccsc" /><path
       id="path65267"
       style="opacity:1;fill:#141414;fill-opacity:1;stroke-width:0.586661;stroke-linecap:round;stroke-linejoin:round;paint-order:markers stroke fill"
       d="m 4.1909248,27.893943 c 0.039971,0.09096 0.1307285,0.154163 0.2367829,0.154163 h 1.364512 c 0.1060544,0 0.1968121,-0.0632 0.236783,-0.154163 l -0.919039,-0.06229 z"
       sodipodi:nodetypes="cssccc" /><path
       id="path65490"
       style="opacity:1;fill:#141414;fill-opacity:1;stroke:none;stroke-width:0.621292;stroke-linecap:round;stroke-linejoin:round;stroke-dasharray:none;paint-order:markers stroke fill"
       d="m 6.9854989,29.655368 -0.8720837,0.02424 0.1072078,0.400096 c 0.2070916,0.029 0.4165387,0.05798 0.6260167,0.08695 h 0.3716021 l 0.2204089,-0.127247 0.4749304,0.127247 H 9.868686 l 0.13613,-0.234348 v -0.02039 L 9.8566997,29.655368 Z" /><path
       style="opacity:1;fill:#3b3b3b;fill-opacity:1;stroke:none;stroke-width:0.621292;stroke-linecap:round;stroke-linejoin:round;stroke-dasharray:none;paint-order:markers stroke fill"
       d="m 7.7786504,30.552257 c 0.035371,0.01654 0.1060776,0.04959 0.1768021,0.08265 -0.086734,0.214693 -0.17347,0.429388 -0.2400898,0.663547 -0.06662,0.234159 -0.1131218,0.487763 -0.1550346,0.664254 -0.041913,0.176491 -0.079234,0.275862 -0.1260705,0.340374 -0.046836,0.06451 -0.1031912,0.09417 -0.1625146,0.08602 -0.059323,-0.0082 -0.1216098,-0.05412 -0.1542459,-0.128279 -0.032636,-0.07416 -0.035603,-0.17649 -0.00372,-0.330856 0.031886,-0.154367 0.098625,-0.360754 0.2093517,-0.601803 0.1107266,-0.241049 0.2654358,-0.516747 0.4201454,-0.792445 6e-7,0 1.7e-6,-1e-6 1.7e-6,-1e-6 0,0 0,-3e-6 0.035371,0.01653 z"
       id="path65716"
       inkscape:path-effect="#path-effect65718"
       inkscape:original-d="m 7.743279,30.535721 c 0.070739,0.03308 0.2121735,0.09919 0.2121735,0.09919 0,0 -0.1734537,0.429395 -0.2602031,0.644078 -0.046491,0.253631 -0.092993,0.507235 -0.1395113,0.76084 -0.037308,0.09938 -0.074628,0.198751 -0.1119621,0.298107 -0.056345,0.02968 -0.1127005,0.05934 -0.1690756,0.08899 -0.06228,-0.04597 -0.1245684,-0.09194 -0.1868731,-0.137929 -0.00295,-0.102323 -0.00592,-0.204658 -0.0089,-0.307006 0.066755,-0.20638 0.1334944,-0.412767 0.2002211,-0.619171 0.1547263,-0.27569 0.4641289,-0.827095 0.4641289,-0.827095 0,0 1.49e-5,1.3e-5 1.7e-6,-1e-6 z"
       sodipodi:nodetypes="scccccccccs" /><rect
       style="opacity:1;fill:#3b3b3b;fill-opacity:1;stroke:none;stroke-width:0.621292;stroke-linecap:round;stroke-linejoin:round;stroke-dasharray:none;paint-order:markers stroke fill"
       id="rect65794"
       width="0.9877575"
       height="0.30542955"
       x="12.219966"
       y="27.357414"
       ry="0.15271477" /><rect
       style="opacity:1;fill:#3b3b3b;fill-opacity:1;stroke:none;stroke-width:0.621292;stroke-linecap:round;stroke-linejoin:round;stroke-dasharray:none;paint-order:markers stroke fill"
       id="rect65796"
       width="0.9877575"
       height="0.30542955"
       x="13.48946"
       y="27.357414"
       ry="0.15271477" /><rect
       style="opacity:1;fill:#3b3b3b;fill-opacity:1;stroke:none;stroke-width:0.621292;stroke-linecap:round;stroke-linejoin:round;stroke-dasharray:none;paint-order:markers stroke fill"
       id="rect65798"
       width="0.9877575"
       height="0.30542955"
       x="14.758955"
       y="27.357414"
       ry="0.15271477" /><path
       style="display:inline;fill:#656565;fill-opacity:1;stroke:none;stroke-width:0.621292;stroke-linecap:round;stroke-linejoin:round;stroke-dasharray:none;stroke-opacity:1;paint-order:markers stroke fill"
       id="path185866-6"
       sodipodi:type="arc"
       sodipodi:cx="9.7971783"
       sodipodi:cy="27.239553"
       sodipodi:rx="0.34158918"
       sodipodi:ry="0.34158918"
       sodipodi:start="0.55096906"
       sodipodi:end="0.52359878"
       sodipodi:open="true"
       sodipodi:arc-type="arc"
       d="m 10.088218,27.41838 a 0.34158918,0.34158918 0 0 1 -0.4678705,0.11343 0.34158918,0.34158918 0 0 1 -0.1166292,-0.467083 0.34158918,0.34158918 0 0 1 0.4662747,-0.119823 0.34158918,0.34158918 0 0 1 0.12301,0.465444" /><path
       style="display:inline;fill:#8f8f8f;fill-opacity:1;stroke:none;stroke-width:0.314586;stroke-linecap:round;stroke-linejoin:round;stroke-dasharray:none;stroke-opacity:1;paint-order:markers stroke fill"
       id="path185937-6"
       sodipodi:type="arc"
       sodipodi:cx="9.7971783"
       sodipodi:cy="27.239553"
       sodipodi:rx="0.17296074"
       sodipodi:ry="0.17296074"
       sodipodi:start="0.55096906"
       sodipodi:end="0.52359878"
       sodipodi:open="true"
       sodipodi:arc-type="arc"
       d="m 9.9445439,27.330101 a 0.17296074,0.17296074 0 0 1 -0.2369024,0.05743 0.17296074,0.17296074 0 0 1 -0.059054,-0.236504 0.17296074,0.17296074 0 0 1 0.2360941,-0.06067 0.17296074,0.17296074 0 0 1 0.062285,0.235674" /><path
       id="rect65881"
       style="opacity:1;fill:#3b3b3b;fill-opacity:1;stroke:none;stroke-width:1.27511;stroke-linecap:round;stroke-linejoin:round;stroke-dasharray:none;paint-order:markers stroke fill"
       d="m 6.6069672,28.20003 v 0.392383 l 0.5981646,0.598165 H 9.1742507 V 28.20003 Z"
       sodipodi:nodetypes="cccccc" /><rect
       style="opacity:1;fill:#3b3b3b;fill-opacity:1;stroke:none;stroke-width:0.621292;stroke-linecap:round;stroke-linejoin:round;stroke-dasharray:none;paint-order:markers stroke fill"
       id="rect66085"
       width="0.89351201"
       height="0.3601678"
       x="9.1113119"
       y="28.422501" /></g></svg>
